Lt. Cmdr. Tom Dodge is assigned as Captain to the USS Stingray, an old diesel driven submarine that has seen better days. With a crew that consists only of weird guys (and a gal), he's headed against the atomic powered USS Orlando, with the mission to destroy a dummy battleship

Video :

    Width : 1 280 pixels
    Height : 720 pixels
    Display aspect ratio : 16:9
    Frame rate : 23.976 fps
    Stream size : 7.26 GiB (96%)
    Language : English

Audio 
    
    Format : AC-3
    Bit rate : 256 Kbps
    Channel(s) : 6 channels
    Sampling rate : 48.0 KHz
    Bit depth : 16 bits
    Compression mode : Lossy
    Stream size : 163 MiB (2%)
